<?xml version="1.0" ?><!DOCTYPE svg  PUBLIC '-//W3C//DTD SVG 1.1//EN'  'http://www.w3.org/Graphics/SVG/1.1/DTD/svg11.dtd'><svg height="256px" style="shape-rendering:geometricPrecision; text-rendering:geometricPrecision; image-rendering:optimizeQuality; fill-rule:evenodd; clip-rule:evenodd" version="1.1" viewBox="0 0 256000 256000" width="256px" xml:space="preserve" xmlns="http://www.w3.org/2000/svg" xmlns:xlink="http://www.w3.org/1999/xlink"><defs><style type="text/css">
   <![CDATA[
    .fil2 {fill:none}
    .fil0 {fill:#424242}
    .fil1 {fill:#FFFFFE}
   ]]>
  </style></defs><g id="Layer_x0020_1"><circle class="fil0" cx="128000" cy="128000" r="128001"/><path class="fil1" d="M64377 196459l0 0zm106967 52009c-13536,4872 -28129,7532 -43344,7532 -9820,0 -19381,-1109 -28566,-3203 -1,-2342 -23,-4566 -51,-7516 -32,-3429 -73,-7693 -106,-12581 -36741,6671 -45318,-19132 -45670,-20243 -5847,-14776 -13886,-18544 -13910,-18555l-301 -169c-18518,-12655 2161,-12393 2220,-12392l142 0c14484,1019 22198,14373 22617,15119 4404,7542 9821,11261 15203,12798 7807,2228 15679,-26 20329,-1948 646,-3813 1708,-7110 3035,-9902 894,-1882 1910,-3541 3002,-4982 -14030,-1992 -28090,-6056 -39073,-15303 -12188,-10259 -20448,-26737 -20448,-53537l10 0c0,-7494 1298,-14322 3665,-20490 2345,-6114 5746,-11592 9980,-16442 -810,-2302 -1935,-6313 -2290,-11624 -435,-6495 274,-14970 4117,-24687l89 -177c2,-4 1670,-1425 4029,-1545 1555,-78 3903,4 7072,644 6171,1249 15625,4670 28675,13383 5157,-1386 10479,-2439 15876,-3165 5841,-786 11788,-1188 17728,-1215l17 0c5933,27 11873,429 17710,1214 5400,727 10727,1781 15893,3167 26233,-17519 38323,-13656 38359,-13645l1057 313 407 1026c3858,9730 4573,18197 4142,24678 -352,5310 -1473,9319 -2279,11623 4231,4837 7620,10308 9961,16420 2373,6194 3666,13033 3666,20522 0,26874 -8272,43346 -20482,53568 -10992,9202 -25069,13214 -39129,15171 1644,2150 3121,4796 4275,7946 1554,4241 2527,9406 2527,15512 0,10896 -81,22231 -134,29737 -7,1061 -14,2017 -20,2948zm-113400 -47267c967,100 1678,887 1590,1759 -90,872 -946,1498 -1914,1399 -968,-100 -1679,-886 -1591,-1758 90,-873 948,-1499 1915,-1400zm3647 9400c90,-873 946,-1499 1915,-1400 967,99 1678,886 1588,1759 -88,871 -945,1499 -1913,1399 -967,-99 -1678,-887 -1590,-1758zm-12640 -21641c968,100 1679,887 1591,1759 -90,872 -947,1498 -1915,1399 -967,-100 -1678,-886 -1589,-1758 89,-873 946,-1499 1913,-1400zm4677 5216c967,99 1678,887 1590,1759 -90,872 -947,1499 -1915,1399 -967,-99 -1678,-887 -1588,-1758 88,-872 945,-1499 1913,-1400zm17373 20543c969,99 1680,887 1590,1759 -89,871 -946,1499 -1914,1399 -967,-99 -1679,-887 -1589,-1758 89,-872 946,-1499 1913,-1400zm10785 2939c967,99 1679,887 1589,1758 -89,872 -946,1499 -1913,1400 -967,-99 -1679,-887 -1590,-1759 90,-872 946,-1498 1914,-1399zm9966 -810c967,99 1679,887 1590,1758 -89,872 -946,1498 -1914,1399 -967,-100 -1679,-886 -1590,-1758 90,-873 947,-1499 1914,-1399z"/></g><rect class="fil2" height="256000" width="256000"/></svg>