<?xml version="1.0" ?><!DOCTYPE svg  PUBLIC '-//W3C//DTD SVG 1.1//EN'  'http://www.w3.org/Graphics/SVG/1.1/DTD/svg11.dtd'><svg height="8.4666mm" style="shape-rendering:geometricPrecision; text-rendering:geometricPrecision; image-rendering:optimizeQuality; fill-rule:evenodd; clip-rule:evenodd" version="1.1" viewBox="0 0 846.66 846.66" width="8.4666mm" xml:space="preserve" xmlns="http://www.w3.org/2000/svg" xmlns:xlink="http://www.w3.org/1999/xlink"><defs><style type="text/css">
   <![CDATA[
    .fil0 {fill:black;fill-rule:nonzero}
   ]]>
  </style></defs><g id="Layer_x0020_1"><path class="fil0" d="M423.33 279.52c54.2,0 98.47,44.26 98.47,98.47l0 45.71c0,11.4 -9.25,20.65 -20.65,20.65l-155.64 0c-11.4,0 -20.65,-9.25 -20.65,-20.65l0 -45.71c0,-54.2 44.27,-98.47 98.47,-98.47zm-182.05 256.57c-27.16,0 -27.16,-41.3 0,-41.3l364.1 0c27.16,0 27.16,41.3 0,41.3l-364.1 0zm0 177.71c-27.16,0 -27.16,-41.29 0,-41.29l364.1 0c27.16,0 27.16,41.29 0,41.29l-364.1 0zm0 -88.85c-27.16,0 -27.16,-41.3 0,-41.3l364.1 0c27.16,0 27.16,41.3 0,41.3l-364.1 0zm-121.37 -614.55l465.97 0c5.7,0 10.86,2.31 14.6,6.05l140.87 140.87c4.03,4.03 6.05,9.32 6.05,14.6l0 643.69c0,11.4 -9.25,20.65 -20.65,20.65l-606.84 0c-11.4,0 -20.65,-9.25 -20.65,-20.65l0 -784.56c0,-11.4 9.25,-20.65 20.65,-20.65zm457.42 41.29l-436.78 0 0 743.28 565.56 0 0 -614.5 -128.78 -128.78zm-154 57.32c45.98,0 83.25,37.28 83.25,83.26 0,45.97 -37.27,83.25 -83.25,83.25 -45.98,0 -83.25,-37.28 -83.25,-83.25 0,-45.98 37.27,-83.26 83.25,-83.26zm0 41.3c-23.18,0 -41.96,18.78 -41.96,41.96 0,23.17 18.78,41.96 41.96,41.96 23.18,0 41.96,-18.79 41.96,-41.96 0,-23.18 -18.78,-41.96 -41.96,-41.96zm0 170.5c-31.4,0 -57.18,25.77 -57.18,57.18l0 25.07 114.36 0 0 -25.07c0,-31.41 -25.78,-57.18 -57.18,-57.18z"/></g></svg>